<svg xmlns="http://www.w3.org/2000/svg" width="248.02" height="45.002" viewBox="0 0 248.02 45.002">
  <g id="Dark_Name" data-name="Dark Name" transform="translate(-358.98 -313.078)">
    <path id="Path_1944" data-name="Path 1944" d="M382.317,405.546a1.937,1.937,0,0,1,1.553.659,2.164,2.164,0,0,1,.612,1.6v18.067a13.523,13.523,0,0,1-1.647,6.681,12.062,12.062,0,0,1-4.564,4.658,12.811,12.811,0,0,1-6.493,1.647,13.164,13.164,0,0,1-6.587-1.647,12.06,12.06,0,0,1-4.564-4.658,13.521,13.521,0,0,1-1.647-6.681V407.8a2.081,2.081,0,0,1,.659-1.6,2.293,2.293,0,0,1,1.694-.659,2.333,2.333,0,0,1,2.258,2.258v18.067a8.754,8.754,0,0,0,1.129,4.423,8.156,8.156,0,0,0,3.011,3.011,7.983,7.983,0,0,0,4.046,1.082,8.417,8.417,0,0,0,4.187-1.082,8.054,8.054,0,0,0,3.058-3.011,8.482,8.482,0,0,0,1.176-4.423V407.8a2.265,2.265,0,0,1,.565-1.6A1.937,1.937,0,0,1,382.317,405.546Zm34.582.047a1.9,1.9,0,0,1,1.459.612,1.974,1.974,0,0,1,.565,1.459v28.56a2.234,2.234,0,0,1-.659,1.647,2.082,2.082,0,0,1-1.6.659,3.918,3.918,0,0,1-1.035-.141,1.9,1.9,0,0,1-.753-.518l-18.491-24.09v22.678a2.047,2.047,0,0,1-.612,1.506,2.166,2.166,0,0,1-2.917,0,2.137,2.137,0,0,1-.565-1.506V407.851a2.172,2.172,0,0,1,2.211-2.258,2.587,2.587,0,0,1,1.082.235,1.69,1.69,0,0,1,.8.565l18.444,24.137V407.663a1.974,1.974,0,0,1,.565-1.459A2.046,2.046,0,0,1,416.9,405.593Zm14.511,30.63a2.159,2.159,0,0,1-.706,1.647,2.338,2.338,0,0,1-1.647.659,2.293,2.293,0,0,1-1.694-.659,2.327,2.327,0,0,1-.612-1.647V407.851a2.178,2.178,0,0,1,.659-1.6,2.293,2.293,0,0,1,1.694-.659,2.178,2.178,0,0,1,1.6.659,2.107,2.107,0,0,1,.706,1.6Z" transform="translate(0 -81.591)" fill="#fff"/>
    <path id="Path_1945" data-name="Path 1945" d="M1067.928,402.369a2.267,2.267,0,0,1,1.6.612,1.916,1.916,0,0,1,.706,1.506,2.724,2.724,0,0,1-.235,1.035l-12,28.371a2.456,2.456,0,0,1-.941,1.082,2.393,2.393,0,0,1-1.27.376,2.724,2.724,0,0,1-1.176-.376,2.777,2.777,0,0,1-.847-1.035l-12-28.418a2.213,2.213,0,0,1-.188-.988,2.016,2.016,0,0,1,.706-1.6,2.319,2.319,0,0,1,1.553-.612,2.177,2.177,0,0,1,2.07,1.506l10.257,24.231,9.692-24.278a2.778,2.778,0,0,1,.847-1.035A2.161,2.161,0,0,1,1067.928,402.369Zm12.321,30.677a2.159,2.159,0,0,1-.706,1.647,2.338,2.338,0,0,1-1.647.659,2.292,2.292,0,0,1-1.694-.659,2.325,2.325,0,0,1-.612-1.647V404.675a2.175,2.175,0,0,1,.659-1.6,2.292,2.292,0,0,1,1.694-.659,2.18,2.18,0,0,1,1.6.659,2.107,2.107,0,0,1,.706,1.6Zm17.769,2.776a18,18,0,0,1-6.07-.941,15.839,15.839,0,0,1-5.034-3.152,2.5,2.5,0,0,1-.988-1.929,2.34,2.34,0,0,1,2.211-2.211,1.948,1.948,0,0,1,1.365.518,13.638,13.638,0,0,0,3.858,2.588,12.325,12.325,0,0,0,4.564.8,8.719,8.719,0,0,0,4.987-1.364,4.019,4.019,0,0,0,2.07-3.435,4.341,4.341,0,0,0-2.07-3.764,17.585,17.585,0,0,0-6.07-2.258,16.369,16.369,0,0,1-7.481-3.246,7.868,7.868,0,0,1-2.588-6.258,8.2,8.2,0,0,1,1.458-4.846,9.281,9.281,0,0,1,4.046-3.246,14.444,14.444,0,0,1,5.834-1.129,15.988,15.988,0,0,1,5.505.941,11.622,11.622,0,0,1,4.187,2.494,2.691,2.691,0,0,1,1.082,2.023,2.074,2.074,0,0,1-.659,1.506,1.975,1.975,0,0,1-1.505.659,1.567,1.567,0,0,1-1.082-.376,9.768,9.768,0,0,0-3.387-2.07,11.357,11.357,0,0,0-4.141-.847,8.62,8.62,0,0,0-5.034,1.317,3.931,3.931,0,0,0-1.835,3.388,3.984,3.984,0,0,0,1.835,3.529,17.777,17.777,0,0,0,5.552,2.07,28.715,28.715,0,0,1,5.975,1.882,8.424,8.424,0,0,1,3.623,3.011,9.006,9.006,0,0,1,1.27,5.034,7.982,7.982,0,0,1-1.553,4.846,9.9,9.9,0,0,1-4.14,3.294A14.04,14.04,0,0,1,1098.018,435.822Z" transform="translate(-602.309 -78.415)" fill="#fff"/>
    <path id="Path_1946" data-name="Path 1946" d="M1952.246,424.6a17.922,17.922,0,0,1-2.07,8.61,15.614,15.614,0,0,1-5.646,6.117,16.26,16.26,0,0,1-16.374,0,15.948,15.948,0,0,1-5.693-6.117,19.333,19.333,0,0,1,0-17.22,15.6,15.6,0,0,1,5.693-6.069,15.6,15.6,0,0,1,22.02,6.069A17.922,17.922,0,0,1,1952.246,424.6Zm-4.846,0a14.008,14.008,0,0,0-1.411-6.352,10.755,10.755,0,0,0-3.952-4.47,10.1,10.1,0,0,0-5.693-1.647,10.545,10.545,0,0,0-5.74,1.6,10.867,10.867,0,0,0-3.905,4.47,14.113,14.113,0,0,0-1.411,6.4,14.3,14.3,0,0,0,1.411,6.4,11.277,11.277,0,0,0,3.905,4.47,10.545,10.545,0,0,0,5.74,1.6,10.316,10.316,0,0,0,5.693-1.6,11.154,11.154,0,0,0,3.952-4.47A14.3,14.3,0,0,0,1947.4,424.6Zm35.369-16.468a1.9,1.9,0,0,1,1.459.612,1.973,1.973,0,0,1,.565,1.459v28.56a2.236,2.236,0,0,1-.659,1.647,2.083,2.083,0,0,1-1.6.659,3.913,3.913,0,0,1-1.035-.141,1.893,1.893,0,0,1-.753-.518l-18.491-24.09V439a2.049,2.049,0,0,1-.612,1.506,2.166,2.166,0,0,1-2.917,0,2.137,2.137,0,0,1-.565-1.506V410.394a2.172,2.172,0,0,1,2.211-2.258,2.589,2.589,0,0,1,1.082.235,1.691,1.691,0,0,1,.8.565l18.444,24.137V410.206a1.974,1.974,0,0,1,.565-1.459A2.044,2.044,0,0,1,1982.769,408.135Z" transform="translate(-1377.792 -83.461)" fill="#fff"/>
    <path id="Path_1947" data-name="Path 1947" d="M1682.612,399.952a5.818,5.818,0,1,1,5.832-5.823,1.9,1.9,0,0,0,3.81,0,9.642,9.642,0,1,0-15.876,7.332A13.569,13.569,0,0,0,1669,413.519v4.61a1.9,1.9,0,0,0,3.81,0v-4.61a9.8,9.8,0,0,1,19.6,0v4.61a1.906,1.906,0,0,0,3.811,0v-4.61A13.606,13.606,0,0,0,1682.612,399.952Z" transform="translate(-1155.928 -63.037)" fill="#fff"/>
    <rect id="Rectangle_814" data-name="Rectangle 814" width="12.971" height="6.73" transform="translate(520.369 318.116)" fill="#fff"/>
    <path id="Path_1948" data-name="Path 1948" d="M1684.1,313.086a.119.119,0,0,1,.088,0l13.482,5.422a.118.118,0,0,1,0,.216l-13.482,6.1a.118.118,0,0,1-.1,0l-13.482-6.1a.118.118,0,0,1,0-.216Z" transform="translate(-1157.292)" fill="#fff"/>
  </g>
</svg>
