<svg width="400" height="124" viewBox="0 0 400 124" fill="none" xmlns="http://www.w3.org/2000/svg">
<path d="M39.44 39.4373C40.5509 17.4923 58.8028 0 81.0225 0C104.036 0 122.684 18.685 122.605 41.584V46.1175C122.529 24.7047 105.045 7.27969 83.4915 7.27969C62.5911 7.27969 45.4229 23.7334 44.3779 44.3754C23.7761 45.4224 7.27969 62.5493 7.27969 83.4904C7.27969 105.03 24.8211 122.605 46.3933 122.605H41.5826C18.6487 122.605 0 103.92 0 81.0213C0 58.7583 17.5377 40.5504 39.44 39.4373Z" fill="#FFC400"/>
<path d="M81.0224 0C58.8027 0 40.7952 17.0975 39.4398 39.4373C38.5781 53.6398 41.0074 60.2193 44.3777 65.1341C40.6449 63.4072 38.8096 62.0376 36.5421 58.0458C33.9111 59.8389 32.1836 62.8594 32.1836 66.2835C32.1836 71.7851 36.6436 76.2451 42.1453 76.2451C47.647 76.2451 52.107 71.7851 52.107 66.2835C52.107 63.6886 51.1148 61.3255 49.4892 59.5527C46.9198 56.7507 43.7246 53.7369 43.8673 49.9378C43.9422 47.9439 44.0991 46.0239 44.3777 44.3754C47.4567 26.1606 62.5909 7.27969 83.4913 7.27969C105.045 7.27969 122.529 24.7047 122.605 46.1175V41.584C122.684 18.685 104.036 0 81.0224 0Z" fill="#00C853"/>
<path d="M77.1519 107.834V66.3961H87.6804C98.7055 66.3961 104.963 74.7234 104.963 87.6109C104.963 100.598 99.0035 107.834 87.4818 107.834H77.1519ZM59.5713 121.073C59.5713 121.919 60.2575 122.605 61.1039 122.605H88.773C97.7123 122.605 104.864 120.325 110.426 116.162C118.372 110.114 122.742 100.102 122.742 87.6109C122.742 65.9004 109.532 51.7242 89.8656 51.7242H68.7667C63.6882 51.7242 59.5713 55.8411 59.5713 60.9196V121.073Z" fill="#2962FF"/>
<path d="M32.9497 113.592C32.9497 118.671 37.4314 122.788 42.9598 122.788H50.5742V86.2069C50.5742 84.5141 49.0803 83.1418 47.2375 83.1418H42.9599C37.4314 83.1418 32.9497 87.2587 32.9497 92.3372V113.592Z" fill="#2962FF"/>
<path d="M153.137 112.124C146.254 112.124 142.667 106.112 142.667 97.0944C142.667 88.0766 146.254 81.9679 153.137 81.9679C160.02 81.9679 163.704 88.0766 163.704 97.0944C163.704 106.112 160.02 112.124 153.137 112.124ZM153.234 123.372C169.229 123.372 179.699 112.027 179.699 97.0944C179.699 82.1618 169.229 70.8169 153.234 70.8169C137.335 70.8169 126.671 82.1618 126.671 97.0944C126.671 112.027 137.335 123.372 153.234 123.372Z" fill="#2962FF"/>
<path d="M185.041 118.755C185.041 120.448 186.413 121.82 188.106 121.82H197.778C199.47 121.82 200.843 120.448 200.843 118.755V94.379C200.843 88.2702 204.333 83.9068 209.568 83.9068C214.706 83.9068 217.323 87.4945 217.323 92.7306V118.755C217.323 120.448 218.695 121.82 220.388 121.82H230.06C231.753 121.82 233.125 120.448 233.125 118.755V89.5308C233.125 78.4768 226.727 70.7196 215.869 70.7196C209.022 70.7196 204.285 73.5985 200.609 78.8789C200.573 78.9304 200.514 78.9616 200.452 78.9616C200.346 78.9616 200.261 78.8762 200.261 78.7709V75.2392C200.261 73.5464 198.889 72.1741 197.196 72.1741H188.106C186.413 72.1741 185.041 73.5464 185.041 75.2392V118.755Z" fill="#2962FF"/>
<path fill-rule="evenodd" clip-rule="evenodd" d="M255.302 123.145C262.777 123.145 267.145 120.527 270.058 116.358H270.252C270.402 117.332 270.566 118.219 270.757 119.003C271.219 120.908 273.061 121.885 275.022 121.885H285.493V89.1106C285.493 82.9049 283.454 78.0567 279.183 74.9538C275.591 72.2388 270.543 70.8813 263.068 70.8813C249.781 70.8813 242.702 77.0053 240.96 84.7804C240.579 86.4818 242 87.9471 243.743 87.9471H252.379C253.935 87.9471 255.155 86.7333 255.801 85.318C256.928 82.8474 259.311 81.5474 263.165 81.5474C267.922 81.5474 269.961 83.6806 269.961 86.8804C269.961 90.2742 266.66 91.2439 257.341 92.4074C247.051 93.7649 238.314 97.0617 238.314 108.019C238.314 117.812 245.4 123.145 255.302 123.145ZM253.555 107.534C253.555 111.51 256.467 113.061 260.35 113.061C266.272 113.061 270.349 109.473 270.349 104.14V98.2254C268.31 99.292 265.398 100.068 262.194 100.843C256.079 102.201 253.555 103.752 253.555 107.534Z" fill="#2962FF"/>
<path d="M317.868 122.051C316.288 122.255 314.138 122.402 311.51 122.402C302.3 122.402 295.708 119.396 295.708 108.73V82.8309C295.708 82.4077 295.365 82.0646 294.942 82.0646H292.181C290.488 82.0646 289.116 80.6923 289.116 78.9995V75.2394C289.116 73.5465 290.488 72.1742 292.181 72.1742H295.864C296.221 72.1742 296.531 71.9275 296.611 71.5794L298.59 62.9577C298.959 61.3478 299.797 59.8834 300.998 58.7492C302.55 57.2828 304.605 56.4659 306.74 56.4659H308.057C309.75 56.4659 311.122 57.8382 311.122 59.5311V71.4079C311.122 71.8311 311.465 72.1742 311.888 72.1742H317.073C318.766 72.1742 320.138 73.5465 320.138 75.2394V78.9995C320.138 80.6923 318.766 82.0646 317.073 82.0646H311.888C311.465 82.0646 311.122 82.4077 311.122 82.8309V105.336C311.122 109.215 313.255 110.184 316.648 110.184C316.788 110.184 316.931 110.183 317.074 110.181C318.767 110.16 320.138 111.46 320.138 113.153V119.314C320.138 120.683 319.225 121.876 317.868 122.051Z" fill="#2962FF"/>
<path d="M325.67 118.755C325.67 120.448 327.042 121.82 328.735 121.82H338.428C340.121 121.82 341.493 120.448 341.493 118.755V75.2395C341.493 73.5467 340.121 72.1744 338.428 72.1744H328.735C327.042 72.1744 325.67 73.5467 325.67 75.2395V118.755Z" fill="#2962FF"/>
<path d="M326.053 59.9617C326.053 55.8355 329.398 52.4905 333.524 52.4905C337.651 52.4905 340.996 55.8355 340.996 59.9617C340.996 64.088 337.651 67.433 333.524 67.433C329.398 67.433 326.053 64.088 326.053 59.9617Z" fill="#2962FF"/>
<path d="M373.437 112.124C366.554 112.124 362.967 106.112 362.967 97.0944C362.967 88.0766 366.554 81.9679 373.437 81.9679C380.32 81.9679 384.004 88.0766 384.004 97.0944C384.004 106.112 380.32 112.124 373.437 112.124ZM373.534 123.372C389.53 123.372 400 112.027 400 97.0944C400 82.1618 389.53 70.8169 373.534 70.8169C357.636 70.8169 346.972 82.1618 346.972 97.0944C346.972 112.027 357.636 123.372 373.534 123.372Z" fill="#2962FF"/>
</svg>
