<svg xmlns="http://www.w3.org/2000/svg" width="196" height="35.563" viewBox="0 0 196 35.563">
  <g id="Group_6850" data-name="Group 6850" transform="translate(-107.808 -376.892)">
    <path id="Vector" d="M18.442,0a1.531,1.531,0,0,1,1.227.521,1.71,1.71,0,0,1,.483,1.264V16.063a10.686,10.686,0,0,1-1.3,5.28,9.532,9.532,0,0,1-3.607,3.681,10.124,10.124,0,0,1-5.131,1.3,10.4,10.4,0,0,1-5.205-1.3A9.53,9.53,0,0,1,1.3,21.342,10.685,10.685,0,0,1,0,16.063V1.785A1.645,1.645,0,0,1,.521.521,1.812,1.812,0,0,1,1.859,0,1.679,1.679,0,0,1,3.086.521a1.665,1.665,0,0,1,.558,1.264V16.063a6.918,6.918,0,0,0,.892,3.5,6.446,6.446,0,0,0,2.38,2.38,6.309,6.309,0,0,0,3.2.855,6.652,6.652,0,0,0,3.309-.855,6.365,6.365,0,0,0,2.417-2.38,6.7,6.7,0,0,0,.93-3.5V1.785A1.79,1.79,0,0,1,17.215.521,1.531,1.531,0,0,1,18.442,0ZM45.771.037a1.5,1.5,0,0,1,1.153.483,1.56,1.56,0,0,1,.446,1.153V24.243a1.766,1.766,0,0,1-.521,1.3,1.645,1.645,0,0,1-1.264.521,3.1,3.1,0,0,1-.818-.112,1.5,1.5,0,0,1-.595-.409L29.56,6.507V24.429a1.617,1.617,0,0,1-.483,1.19,1.712,1.712,0,0,1-2.305,0,1.689,1.689,0,0,1-.446-1.19V1.822A1.716,1.716,0,0,1,28.073.037a2.045,2.045,0,0,1,.855.186,1.336,1.336,0,0,1,.632.446L44.135,19.744V1.673A1.56,1.56,0,0,1,44.582.521,1.617,1.617,0,0,1,45.771.037ZM57.239,24.243a1.706,1.706,0,0,1-.558,1.3,1.847,1.847,0,0,1-1.3.521,1.812,1.812,0,0,1-1.339-.521,1.839,1.839,0,0,1-.483-1.3V1.822A1.721,1.721,0,0,1,54.079.558,1.812,1.812,0,0,1,55.417.037a1.721,1.721,0,0,1,1.264.521,1.665,1.665,0,0,1,.558,1.264Z" transform="translate(107.808 385.488)" fill="#fff"/>
    <path id="Vector-2" data-name="Vector" d="M20.822.335a1.792,1.792,0,0,1,1.264.483,1.514,1.514,0,0,1,.558,1.19,2.152,2.152,0,0,1-.186.818L12.977,25.247a1.941,1.941,0,0,1-.744.855,1.891,1.891,0,0,1-1,.3,2.154,2.154,0,0,1-.93-.3,2.2,2.2,0,0,1-.669-.818L.149,2.826A1.748,1.748,0,0,1,0,2.045,1.593,1.593,0,0,1,.558.781,1.832,1.832,0,0,1,1.785.3a1.72,1.72,0,0,1,1.636,1.19l8.106,19.149L19.186,1.45a2.2,2.2,0,0,1,.669-.818A1.708,1.708,0,0,1,20.822.335Zm9.737,24.243a1.706,1.706,0,0,1-.558,1.3,1.848,1.848,0,0,1-1.3.521,1.811,1.811,0,0,1-1.339-.521,1.838,1.838,0,0,1-.483-1.3V2.157A1.719,1.719,0,0,1,27.4.892,1.811,1.811,0,0,1,28.737.372,1.723,1.723,0,0,1,30,.892a1.665,1.665,0,0,1,.558,1.264ZM44.6,26.771a14.227,14.227,0,0,1-4.8-.744,12.515,12.515,0,0,1-3.978-2.491,1.974,1.974,0,0,1-.781-1.524,1.849,1.849,0,0,1,1.748-1.748,1.54,1.54,0,0,1,1.078.409,10.776,10.776,0,0,0,3.049,2.045,9.74,9.74,0,0,0,3.607.632,6.89,6.89,0,0,0,3.941-1.078A3.176,3.176,0,0,0,50.1,19.558a3.431,3.431,0,0,0-1.636-2.975,13.9,13.9,0,0,0-4.8-1.785,12.936,12.936,0,0,1-5.912-2.566,6.217,6.217,0,0,1-2.045-4.945,6.477,6.477,0,0,1,1.153-3.83,7.334,7.334,0,0,1,3.2-2.566A11.414,11.414,0,0,1,44.675,0a12.634,12.634,0,0,1,4.35.744,9.185,9.185,0,0,1,3.309,1.971,2.126,2.126,0,0,1,.855,1.6,1.639,1.639,0,0,1-.521,1.19,1.561,1.561,0,0,1-1.19.521,1.238,1.238,0,0,1-.855-.3A7.72,7.72,0,0,0,47.947,4.09a8.975,8.975,0,0,0-3.272-.669A6.812,6.812,0,0,0,40.7,4.462a3.107,3.107,0,0,0-1.45,2.677A3.148,3.148,0,0,0,40.7,9.928a14.048,14.048,0,0,0,4.387,1.636,22.693,22.693,0,0,1,4.722,1.487,6.658,6.658,0,0,1,2.863,2.38,7.117,7.117,0,0,1,1,3.978,6.308,6.308,0,0,1-1.227,3.83,7.826,7.826,0,0,1-3.272,2.6A11.1,11.1,0,0,1,44.6,26.771Z" transform="translate(171.259 385.153)" fill="#fff"/>
    <path id="Vector-3" data-name="Vector" d="M25.135,13.386a14.163,14.163,0,0,1-1.636,6.8,12.339,12.339,0,0,1-4.462,4.834,12.172,12.172,0,0,1-6.47,1.748A12.167,12.167,0,0,1,6.1,25.023,12.6,12.6,0,0,1,1.6,20.19a14.422,14.422,0,0,1-1.6-6.8,14.422,14.422,0,0,1,1.6-6.8,12.328,12.328,0,0,1,4.5-4.8A11.975,11.975,0,0,1,12.568,0,12.159,12.159,0,0,1,23.5,6.581,14.163,14.163,0,0,1,25.135,13.386Zm-3.83,0a11.069,11.069,0,0,0-1.115-5.02,8.5,8.5,0,0,0-3.123-3.532,7.981,7.981,0,0,0-4.5-1.3A8.333,8.333,0,0,0,8.031,4.8,8.588,8.588,0,0,0,4.945,8.329,11.154,11.154,0,0,0,3.83,13.386a11.3,11.3,0,0,0,1.115,5.057,8.911,8.911,0,0,0,3.086,3.532,8.333,8.333,0,0,0,4.536,1.264,8.152,8.152,0,0,0,4.5-1.264,8.815,8.815,0,0,0,3.123-3.532A11.3,11.3,0,0,0,21.305,13.386ZM49.256.372a1.5,1.5,0,0,1,1.153.483,1.56,1.56,0,0,1,.446,1.153V24.577a1.767,1.767,0,0,1-.521,1.3,1.646,1.646,0,0,1-1.264.521,3.092,3.092,0,0,1-.818-.112,1.5,1.5,0,0,1-.595-.409L33.045,6.841V24.763a1.619,1.619,0,0,1-.483,1.19,1.712,1.712,0,0,1-2.305,0,1.689,1.689,0,0,1-.446-1.19V2.157A1.716,1.716,0,0,1,31.557.372a2.046,2.046,0,0,1,.855.186A1.337,1.337,0,0,1,33.045,1L47.62,20.078V2.008A1.56,1.56,0,0,1,48.066.855,1.615,1.615,0,0,1,49.256.372Z" transform="translate(252.954 385.685)" fill="#fff"/>
    <path id="Vector-4" data-name="Vector" d="M10.757,12.2a4.6,4.6,0,1,1,4.609-4.6,1.505,1.505,0,0,0,3.011,0A7.62,7.62,0,1,0,5.83,13.389,10.723,10.723,0,0,0,0,22.918v3.643a1.505,1.505,0,0,0,3.011,0V22.918a7.746,7.746,0,0,1,15.491,0v3.643a1.506,1.506,0,0,0,3.012,0V22.918A10.752,10.752,0,0,0,10.757,12.2Z" transform="translate(229.581 383.533)" fill="#fff"/>
    <path id="Vector-5" data-name="Vector" d="M0,0H10.251V5.318H0Z" transform="translate(235.347 380.874)" fill="#fff"/>
    <path id="Vector-6" data-name="Vector" d="M10.713.007a.094.094,0,0,1,.07,0L21.437,4.291a.093.093,0,0,1,0,.171L10.786,9.282a.094.094,0,0,1-.077,0L.054,4.462a.093.093,0,0,1,0-.171Z" transform="translate(229.725 376.892)" fill="#fff"/>
  </g>
</svg>
