<svg width="42" height="67" viewBox="0 0 42 67" fill="none" xmlns="http://www.w3.org/2000/svg">
<path d="M20.659 36.4031C18.9306 36.3989 17.2422 35.8827 15.8071 34.9196C14.3719 33.9566 13.2543 32.5898 12.5954 30.992C11.9365 29.3941 11.7658 27.6369 12.105 25.9421C12.4441 24.2474 13.2779 22.6911 14.5009 21.4699C15.7239 20.2486 17.2814 19.4172 18.9767 19.0806C20.672 18.744 22.429 18.9172 24.0258 19.5785C25.6227 20.2398 26.9878 21.3594 27.9487 22.796C28.9097 24.2326 29.4234 25.9217 29.425 27.6501C29.425 28.4094 29.7266 29.1376 30.2635 29.6745C30.8004 30.2115 31.5286 30.5131 32.288 30.5131C33.0473 30.5131 33.7755 30.2115 34.3124 29.6745C34.8493 29.1376 35.151 28.4094 35.151 27.6501C35.1572 25.2145 34.5497 22.8167 33.3843 20.678C32.2189 18.5394 30.5334 16.7289 28.4834 15.4138C26.4334 14.0988 24.085 13.3215 21.6553 13.154C19.2255 12.9864 16.7927 13.4338 14.5815 14.455C12.3704 15.4761 10.4522 17.038 9.00428 18.9965C7.55634 20.9549 6.62529 23.2466 6.29714 25.6599C5.969 28.0733 6.25434 30.5304 7.12681 32.8043C7.99928 35.0782 9.43074 37.0956 11.289 38.6701C7.95386 40.3801 5.1545 42.9761 3.19828 46.1731C1.24206 49.37 0.204641 53.0441 0.199951 56.7921L0.199951 63.7211C0.199951 64.4804 0.501588 65.2086 1.0385 65.7455C1.57542 66.2824 2.30364 66.5841 3.06295 66.5841C3.82227 66.5841 4.55048 66.2824 5.0874 65.7455C5.62431 65.2086 5.92595 64.4804 5.92595 63.7211V56.7921C5.95797 52.9061 7.52414 49.1901 10.2834 46.4535C13.0426 43.717 16.7713 42.1815 20.6575 42.1815C24.5436 42.1815 28.2723 43.717 31.0315 46.4535C33.7908 49.1901 35.3569 52.9061 35.389 56.7921V63.7211C35.389 64.4807 35.6907 65.2091 36.2278 65.7462C36.7649 66.2833 37.4934 66.5851 38.253 66.5851C39.0125 66.5851 39.741 66.2833 40.2781 65.7462C40.8152 65.2091 41.117 64.4807 41.117 63.7211V56.7921C41.1008 51.3776 38.938 46.1905 35.1029 42.3683C31.2678 38.5462 26.0735 36.4009 20.659 36.4031Z" fill="url(#paint0_linear_95_1357)"/>
<path d="M20.849 0.585077C20.8917 0.567995 20.9393 0.567995 20.982 0.585077L41.246 8.73408C41.278 8.74708 41.3055 8.76918 41.3252 8.79765C41.3448 8.82612 41.3556 8.85971 41.3564 8.89427C41.3571 8.92884 41.3477 8.96287 41.3293 8.99216C41.311 9.02144 41.2844 9.04471 41.253 9.05908L20.988 18.2271C20.9649 18.2375 20.9398 18.243 20.9145 18.243C20.8891 18.243 20.8641 18.2375 20.841 18.2271L0.573973 9.05908C0.542636 9.04443 0.516278 9.02092 0.498156 8.99146C0.480034 8.96199 0.470944 8.92786 0.472008 8.89329C0.473071 8.85871 0.484243 8.8252 0.504142 8.79691C0.524041 8.76861 0.551795 8.74677 0.583973 8.73408L20.849 0.585077Z" fill="url(#paint1_linear_95_1357)"/>
<defs>
<linearGradient id="paint0_linear_95_1357" x1="20.6585" y1="13.1196" x2="20.6585" y2="66.5851" gradientUnits="userSpaceOnUse">
<stop stop-color="#3A9AB7"/>
<stop offset="1" stop-color="#60DBD7"/>
</linearGradient>
<linearGradient id="paint1_linear_95_1357" x1="20.9142" y1="0.572266" x2="20.9142" y2="18.243" gradientUnits="userSpaceOnUse">
<stop stop-color="#3A9AB7"/>
<stop offset="1" stop-color="#60DBD7"/>
</linearGradient>
</defs>
</svg>
